# xmcd CD database file
#
# Track frame offsets:
#	150
#	17653
#	33628
#	47506
#	64418
#	79954
#	96302
#	114009
#	133317
#	152244
#	169405
#	186093
#	201925
#	216625
#	235469
#	250628
#	264408
#	279317
#	296348
#	309318
#
# Disc length: 4320 seconds
#
# Revision: 0
# Processed by: cddbd v1.5.1PL2 Copyright (c) Steve Scherf et al.
# Submitted via: CDex 1.50
#
DISCID=2910de14
DTITLE=NFS - Vol 102 - Various
DYEAR=2005
DGENRE=Country
TTITLE0=Natalie Howard - Is It Just Me
TTITLE1=Travis Sinclair - Midnight Run
TTITLE2=Ronni Rae Rivers - It's Only Make Believe
TTITLE3=Michael O'Rourke - Till Forever Is Gone
TTITLE4=Sandra Humphries - Biggest Fool Around
TTITLE5=Holloway Street - This Morning
TTITLE6=Borderers - The River Is Deep
TTITLE7=Nik Phillips - Not In This Life
TTITLE8=Shelley Evans - Forever Is Goodbye
TTITLE9=Brad Lee - Wearing White
TTITLE10=Harley Smith - In The Dark
TTITLE11=Bill Chambers - Chasing Rainbows
TTITLE12=Kelly Cooper - Are You With Me
TTITLE13=Warren H Williams - Be Like Home
TTITLE14=Ruckus - Dance Cowboy Dance
TTITLE15=Travis List and Alby Poole - If You Don't Like Hank Williams
TTITLE16=Sharryn Bell - Drowning
TTITLE17=Smokin' Crawdads
TTITLE18=Victoria Baillie - Lord Don't Take Me Yet
TTITLE19=Amos Morris - The Rain Don't Tumble Down In July Here
EXTD=YEAR: 2005
EXTT0=
EXTT1=
EXTT2=
EXTT3=
EXTT4=
EXTT5=
EXTT6=
EXTT7=
EXTT8=
EXTT9=
EXTT10=
EXTT11=
EXTT12=
EXTT13=
EXTT14=
EXTT15=
EXTT16=
EXTT17=
EXTT18=
EXTT19=
PLAYORDER=
